<svg width="236" height="344" viewBox="0 0 236 344" fill="none" xmlns="http://www.w3.org/2000/svg">
<rect width="5.75311" height="6.48328" transform="matrix(0.87965 -0.475622 0.43687 0.899525 35.9265 7.73633)" fill="#3B5CD1"/>
<ellipse cx="117.521" cy="155.5" rx="117.521" ry="126.5" fill="#F0DDDD"/>
<path d="M172.49 161.069C172.49 201.976 148.728 235.138 119.416 235.138C90.1044 235.138 66.3424 201.976 66.3424 161.069C66.3424 120.162 90.1044 87 119.416 87C148.728 87 172.49 120.162 172.49 161.069Z" fill="#F0EDED"/>
<path d="M70.624 18.6997C75.6259 29.0273 64.9525 29.6188 54.2323 35.3991C43.5121 41.1793 36.8047 49.9595 31.8028 39.6319C26.8009 29.3043 31.4365 16.2463 42.1567 10.466C52.8769 4.68571 65.6221 8.37205 70.624 18.6997Z" fill="#F0E4E4"/>
<path d="M209.502 52.0788C203.023 61.4476 198.266 50.8557 188.541 43.3681C178.816 35.8805 167.805 34.3327 174.285 24.9638C180.764 15.595 193.9 14.0699 203.625 21.5575C213.35 29.0451 215.981 42.7099 209.502 52.0788Z" fill="#F4E7E7"/>
<ellipse cx="117.686" cy="48.5" rx="5.6865" ry="5.5" fill="#0038FF"/>
<ellipse cx="167.752" cy="63.5" rx="5.6865" ry="5.5" fill="#0038FF"/>
<ellipse cx="204.714" cy="106.5" rx="5.6865" ry="5.5" fill="#0038FF"/>
<ellipse cx="216.087" cy="155.5" rx="5.6865" ry="5.5" fill="#0038FF"/>
<ellipse cx="210.4" cy="202.5" rx="5.6865" ry="5.5" fill="#0038FF"/>
<ellipse cx="178.686" cy="242.5" rx="5.6865" ry="5.5" fill="#0038FF"/>
<ellipse cx="117.686" cy="265.5" rx="5.6865" ry="5.5" fill="#0038FF"/>
<ellipse cx="54.0218" cy="242.5" rx="5.6865" ry="5.5" fill="#0038FF"/>
<ellipse cx="25.5893" cy="197.5" rx="5.6865" ry="5.5" fill="#0038FF"/>
<ellipse cx="15.1639" cy="152.5" rx="5.6865" ry="5.5" fill="#0038FF"/>
<ellipse cx="30.328" cy="100.5" rx="5.6865" ry="5.5" fill="#0038FF"/>
<ellipse cx="64.447" cy="63.5" rx="5.6865" ry="5.5" fill="#0038FF"/>
<path d="M116.712 281L176.218 328.25H57.2056L116.712 281Z" fill="#D9D9D9"/>
<rect x="56.5299" y="329" width="118.469" height="9" fill="#5200FF"/>
<path d="M202.945 14L207.798 17.1275L204.34 23.1013L199.487 19.9739L202.945 14Z" fill="#3B5CD1"/>
</svg>
